<mxfile host="app.diagrams.net" modified="2024-03-27T13:41:49.185Z" agent="Mozilla/5.0 (Windows NT 10.0; Win64; x64) AppleWebKit/537.36 (KHTML, like Gecko) Chrome/123.0.0.0 Safari/537.36" etag="SyTIk4sBmgc-JYdTvCYv" version="23.1.2" type="github">
  <diagram name="Page-1" id="c37626ed-c26b-45fb-9056-f9ebc6bb27b6">
    <mxGraphModel dx="1050" dy="556" grid="1" gridSize="10" guides="1" tooltips="1" connect="1" arrows="1" fold="1" page="1" pageScale="1" pageWidth="1100" pageHeight="850" background="none" math="0" shadow="0">
      <root>
        <mxCell id="0" />
        <mxCell id="1" parent="0" />
        <mxCell id="7kyABEEnuGvRmu6FO3ph-1" value="" style="shape=mxgraph.cisco.routers.wireless_router;sketch=0;html=1;pointerEvents=1;dashed=0;fillColor=#036897;strokeColor=#ffffff;strokeWidth=2;verticalLabelPosition=bottom;verticalAlign=top;align=center;outlineConnect=0;" vertex="1" parent="1">
          <mxGeometry x="100" y="140" width="78" height="77" as="geometry" />
        </mxCell>
        <mxCell id="7kyABEEnuGvRmu6FO3ph-6" value="" style="endArrow=classic;html=1;rounded=0;" edge="1" parent="1">
          <mxGeometry relative="1" as="geometry">
            <mxPoint x="178" y="190" as="sourcePoint" />
            <mxPoint x="390" y="150" as="targetPoint" />
          </mxGeometry>
        </mxCell>
        <mxCell id="7kyABEEnuGvRmu6FO3ph-7" value="NAT" style="edgeLabel;resizable=0;html=1;align=center;verticalAlign=middle;" connectable="0" vertex="1" parent="7kyABEEnuGvRmu6FO3ph-6">
          <mxGeometry relative="1" as="geometry">
            <mxPoint x="136" y="80" as="offset" />
          </mxGeometry>
        </mxCell>
        <mxCell id="7kyABEEnuGvRmu6FO3ph-8" value="10.0.0.1/24" style="edgeLabel;resizable=0;html=1;align=left;verticalAlign=bottom;" connectable="0" vertex="1" parent="7kyABEEnuGvRmu6FO3ph-6">
          <mxGeometry x="-1" relative="1" as="geometry">
            <mxPoint x="-8" y="-20" as="offset" />
          </mxGeometry>
        </mxCell>
        <mxCell id="7kyABEEnuGvRmu6FO3ph-11" value="" style="image;sketch=0;aspect=fixed;html=1;points=[];align=center;fontSize=12;image=img/lib/mscae/VM_Linux.svg;" vertex="1" parent="1">
          <mxGeometry x="790" y="20" width="79.35" height="73" as="geometry" />
        </mxCell>
        <mxCell id="7kyABEEnuGvRmu6FO3ph-12" value="" style="shape=mxgraph.cisco.servers.standard_host;sketch=0;html=1;pointerEvents=1;dashed=0;fillColor=#036897;strokeColor=#ffffff;strokeWidth=2;verticalLabelPosition=bottom;verticalAlign=top;align=center;outlineConnect=0;" vertex="1" parent="1">
          <mxGeometry x="400" y="100" width="62.42" height="90" as="geometry" />
        </mxCell>
        <mxCell id="7kyABEEnuGvRmu6FO3ph-13" value="" style="image;sketch=0;aspect=fixed;html=1;points=[];align=center;fontSize=12;image=img/lib/mscae/VirtualMachineWindows.svg;" vertex="1" parent="1">
          <mxGeometry x="790" y="200" width="86.96" height="80" as="geometry" />
        </mxCell>
        <mxCell id="7kyABEEnuGvRmu6FO3ph-14" value="" style="endArrow=classic;html=1;rounded=0;" edge="1" parent="1">
          <mxGeometry relative="1" as="geometry">
            <mxPoint x="480" y="120" as="sourcePoint" />
            <mxPoint x="770" y="50" as="targetPoint" />
          </mxGeometry>
        </mxCell>
        <mxCell id="7kyABEEnuGvRmu6FO3ph-15" value="VirtualBox Ubunto Server 22.04" style="edgeLabel;resizable=0;html=1;align=center;verticalAlign=middle;" connectable="0" vertex="1" parent="7kyABEEnuGvRmu6FO3ph-14">
          <mxGeometry relative="1" as="geometry">
            <mxPoint x="215" y="45" as="offset" />
          </mxGeometry>
        </mxCell>
        <mxCell id="7kyABEEnuGvRmu6FO3ph-16" value="10.0.0.101/24" style="edgeLabel;resizable=0;html=1;align=left;verticalAlign=bottom;" connectable="0" vertex="1" parent="7kyABEEnuGvRmu6FO3ph-14">
          <mxGeometry x="-1" relative="1" as="geometry">
            <mxPoint x="-90" y="100" as="offset" />
          </mxGeometry>
        </mxCell>
        <mxCell id="7kyABEEnuGvRmu6FO3ph-17" value="10.0.0.102/24" style="edgeLabel;resizable=0;html=1;align=right;verticalAlign=bottom;" connectable="0" vertex="1" parent="7kyABEEnuGvRmu6FO3ph-14">
          <mxGeometry x="1" relative="1" as="geometry">
            <mxPoint x="100" y="70" as="offset" />
          </mxGeometry>
        </mxCell>
        <mxCell id="7kyABEEnuGvRmu6FO3ph-18" value="" style="endArrow=classic;html=1;rounded=0;" edge="1" parent="1">
          <mxGeometry relative="1" as="geometry">
            <mxPoint x="480" y="180" as="sourcePoint" />
            <mxPoint x="770" y="250" as="targetPoint" />
          </mxGeometry>
        </mxCell>
        <mxCell id="7kyABEEnuGvRmu6FO3ph-19" value="2019 WinAD Server" style="edgeLabel;resizable=0;html=1;align=center;verticalAlign=middle;" connectable="0" vertex="1" parent="7kyABEEnuGvRmu6FO3ph-18">
          <mxGeometry relative="1" as="geometry">
            <mxPoint x="207" y="105" as="offset" />
          </mxGeometry>
        </mxCell>
        <mxCell id="7kyABEEnuGvRmu6FO3ph-20" value="DHCP Enabled" style="edgeLabel;resizable=0;html=1;align=left;verticalAlign=bottom;" connectable="0" vertex="1" parent="7kyABEEnuGvRmu6FO3ph-18">
          <mxGeometry x="-1" relative="1" as="geometry">
            <mxPoint x="-90" y="60" as="offset" />
          </mxGeometry>
        </mxCell>
        <mxCell id="7kyABEEnuGvRmu6FO3ph-21" value="10.0.0.103/24" style="edgeLabel;resizable=0;html=1;align=right;verticalAlign=bottom;" connectable="0" vertex="1" parent="7kyABEEnuGvRmu6FO3ph-18">
          <mxGeometry x="1" relative="1" as="geometry">
            <mxPoint x="100" y="60" as="offset" />
          </mxGeometry>
        </mxCell>
        <mxCell id="7kyABEEnuGvRmu6FO3ph-23" value="Not internet accessible&amp;nbsp;&lt;br&gt;Only reachable by Host" style="edgeLabel;resizable=0;html=1;align=center;verticalAlign=middle;" connectable="0" vertex="1" parent="1">
          <mxGeometry x="839.9974586048348" y="159.9959512066349" as="geometry">
            <mxPoint as="offset" />
          </mxGeometry>
        </mxCell>
        <mxCell id="7kyABEEnuGvRmu6FO3ph-26" value="Not internet accessible&amp;nbsp;&lt;br&gt;Only reachable by Host" style="edgeLabel;resizable=0;html=1;align=center;verticalAlign=middle;" connectable="0" vertex="1" parent="1">
          <mxGeometry x="839.9974586048348" y="349.9959512066349" as="geometry">
            <mxPoint as="offset" />
          </mxGeometry>
        </mxCell>
        <mxCell id="7kyABEEnuGvRmu6FO3ph-27" value="Static IP" style="edgeLabel;resizable=0;html=1;align=right;verticalAlign=bottom;" connectable="0" vertex="1" parent="1">
          <mxGeometry x="920.0004981548394" y="119.99712113503874" as="geometry" />
        </mxCell>
        <mxCell id="7kyABEEnuGvRmu6FO3ph-28" value="I want Ubuntu VM to be accessible by host and other VMs on network" style="edgeLabel;resizable=0;html=1;align=left;verticalAlign=bottom;" connectable="0" vertex="1" parent="1">
          <mxGeometry x="90" y="320" as="geometry" />
        </mxCell>
        <mxCell id="7kyABEEnuGvRmu6FO3ph-29" value="I also want to be able to migrate to any network without having to reconfigure the VMs IP&amp;nbsp;" style="edgeLabel;resizable=0;html=1;align=left;verticalAlign=bottom;" connectable="0" vertex="1" parent="1">
          <mxGeometry x="90" y="350" as="geometry" />
        </mxCell>
      </root>
    </mxGraphModel>
  </diagram>
</mxfile>
